{"title":"Wrong.Turn.1-5.PACK.DVDRip.XviD","uid":8395557,"size":3766549022,"categoryP":"video","categoryS":"movies","magnet":"?xt=urn:btih:9db3656d7022e170bdd6803c402a8407e811a8eb&amp;dn=Wrong.Turn.1-5.PACK.DVDRip.XviD&amp;tr=udp%3A%2F%2Ftracker.openbittorrent.com%3A80&amp;tr=udp%3A%2F%2Fopen.demonii.com%3A1337&amp;tr=udp%3A%2F%2Ftracker.coppersurfer.tk%3A6969&amp;tr=udp%3A%2F%2Fexodus.desync.com%3A6969","seeders":4,"leechers":2,"uploader":".BONE.","files":271,"time":1366563473,"description":"Wrong.Turn.DVDRip.XviD-DiAMOND\n\n\nViDEO: 1024kbps avg xvid\nAUDiO: 126kbps vbr mp3\nRESOLUTiON: 576x304 &lt;a href=&quot;\nhttp://www.imdb.com/title/tt0295700/&quot; rel=&quot;nofollow&quot; target=&quot;_NEW&quot;&gt;\nhttp://www.imdb.com/title/tt0295700/&lt;/a&gt;\n\n\n\nWrong.Turn.2.STV.DVDRip.XviD-DMT\n\n\nFrame Rate ..... 23.976 fps\nAudio Format ...... VBR MP3\nAudio Bitrate ..... 128 kbs\nVideo Format ......... XviD\nVideo Bitrate ......... 868\nVideo Resolution .. 640x352\nAspect ............. 1.81:1 &lt;a href=&quot;\nhttp://www.imdb.com/title/tt0804555&quot; rel=&quot;nofollow&quot; target=&quot;_NEW&quot;&gt;\nhttp://www.imdb.com/title/tt0804555&lt;/a&gt;\n\n\nWrong.Turn.3.Left.For.Dead.2009.UNRATED.REAL.PROPER.DVDRip.XviD-DVSKY\n\n\nEncode Info\nContainer: AVI\nRun Time: 1h 32mn\nOverall Bitrate: 1,067 Kbps\nVideo\nFormat: MPEG-4(H.263)\nCodec ID: XVID\nBitrate: 925,Kbps\nResolution: 624x352 pixels\nFramerate: 23.976 fps\nDisplay AR: 16/9\nAudio\nFormat: MPEG Audio\nProfile: Layer 3\nCodec ID: MP3\nBitrate/Mode: 129/Variable\nChannels: 2\nSample Rate: 48.0 KHz\nResolution: 16 bit &lt;a href=&quot;\nhttp://www.imdb.com/title/tt1261978/&quot; rel=&quot;nofollow&quot; target=&quot;_NEW&quot;&gt;\nhttp://www.imdb.com/title/tt1261978/&lt;/a&gt;\n\n\nWrong.Turn.4.Bloody.Beginnings.2011.DVDRip.XviD-EXViD\n\n\nFormat: AVI\nFormat/Info: Audio Video Interleave\nFile size: 700 MiB\nDuration: 1h 29mn\nOverall bit rate: 1 093 Kbps\nWriting application: VirtualDubMod 1.5.10.2 (build 2540/release)\nWriting library: VirtualDubMod build 2540/release\n\nVideo\nID: 0\nFormat: MPEG-4 Visual\nFormat profile: Advanced Simple@L5\nFormat settings, BVOP: Yes\nFormat settings, QPel: No\nFormat settings, GMC: No warppoints\nFormat settings, Matrix: Default (H.263)\nMuxing mode: Packed bitstream\nCodec ID: XVID\nCodec ID/Hint: XviD\nDuration: 1h 29mn\nBit rate: 958 Kbps\nWidth: 624 pixels\nHeight: 352 pixels\nDisplay aspect ratio: 16:9\nFrame rate: 25.000 fps\nColor space: YUV\nChroma subsampling: 4:2:0\nBit depth: 8 bits\nScan type: Progressive\nBits/(Pixel*Frame): 0.174\nStream size: 613 MiB (88%)\nWriting library: XviD 62\n\nAudio\nID: 1\nFormat: MPEG Audio\nFormat version: Version 1\nFormat profile: Layer 3\nMode: Joint stereo\nMode extension: MS Stereo\nCodec ID: 55\nCodec ID/Hint: MP3\nDuration: 1h 29mn\nBit rate mode: Variable\nBit rate: 128 Kbps\nChannel(s): 2 channels\nSampling rate: 48.0 KHz\nStream size: 78.7 MiB (11%)\nAlignment: Aligned on interleaves\nInterleave, duration: 24 ms (0.60 video frame)\nInterleave, preload duration: 149 ms\nWriting library: LAME3.98r\nEncoding settings: -m j -V 4 -q 2 -lowpass 17 --abr 128 &lt;a href=&quot;\nhttp://www.imdb.com/title/tt1865567/&quot; rel=&quot;nofollow&quot; target=&quot;_NEW&quot;&gt;\nhttp://www.imdb.com/title/tt1865567/&lt;/a&gt;\n\n\nWrong.Turn.5.DVDRip.XviD-DiSPOSABLE\n\n\nVideo Res: 640x352\nVideo Bitrate: 939 kbps\nAudio: English mp3 128kbps vbr\nRuntime: 90mins &lt;a href=&quot;\nhttp://www.imdb.com/title/tt2375779/&quot; rel=&quot;nofollow&quot; target=&quot;_NEW&quot;&gt;\nhttp://www.imdb.com/title/tt2375779/&lt;/a&gt;","torrent":{"xt":"urn:btih:9db3656d7022e170bdd6803c402a8407e811a8eb","amp;dn":"Wrong.Turn.1-5.PACK.DVDRip.XviD","amp;tr":["udp%3A%2F%2Ftracker.openbittorrent.com%3A80","udp%3A%2F%2Fopen.demonii.com%3A1337","udp%3A%2F%2Ftracker.coppersurfer.tk%3A6969","udp%3A%2F%2Fexodus.desync.com%3A6969"],"infoHash":"9db3656d7022e170bdd6803c402a8407e811a8eb","infoHashBuffer":{"type":"Buffer","data":[157,179,101,109,112,34,225,112,189,214,128,60,64,42,132,7,232,17,168,235]},"announce":[],"urlList":[]}}